<?xml version="1.0" encoding="utf-8"?>
<!-- Generator: Adobe Illustrator 27.1.1, SVG Export Plug-In . SVG Version: 6.00 Build 0)  -->
<svg version="1.1" id="Layer_1" xmlns="http://www.w3.org/2000/svg" xmlns:xlink="http://www.w3.org/1999/xlink" x="0px" y="0px"
	 viewBox="0 0 493.6 111" style="enable-background:new 0 0 493.6 111;" xml:space="preserve">
<style type="text/css">
	.st0{fill:#FFB811;}
	.st1{fill:#D4B5FA;}
	.st2{fill:#5CE1E6;}
	.st3{fill:#FFFFFF;}
</style>
<g>
	<g>
		<path class="st0" d="M74.8,29.4c-5.7-4.4-9.7-0.9-10.7-0.2c4.8,1.3,4.5,4,4.5,5.1c-0.3,8.4-9,9.2-10.1,9.2
			c-10.4,0.1-10.8-8.3-10.8-9.5c-0.1-6.3,3.8-6.9,4.3-6.9c2.1,0,3.8,2.5,3.8,2.5c0.4-7.3-5.6-7.6-6.9-7.6c-1.2-4.7-6.1-6.9-6.1-6.9
			s-4.9,2.2-6.1,6.9c-1.3,0-7.3,0.3-6.9,7.6c0,0,1.7-2.5,3.8-2.5c0.5,0,4.4,0.5,4.3,6.9c0,1.2-0.4,9.6-10.8,9.5
			c-1.1,0-9.9-0.7-10.1-9.2c0-1-0.2-3.8,4.5-5.1c-1-0.8-5-4.2-10.7,0.2c-0.6-0.8-2.4-3.1-7.4-2.9c1,1.3,10.5,11.6,16.9,28.6
			c3.3-0.9,8-3.6,22.5-3.6c14.5-0.1,19.2,2.6,22.5,3.6c6.4-17,15.8-27.3,16.9-28.6C77.2,26.3,75.3,28.7,74.8,29.4z M29.9,49.5
			c-0.5,0-1-0.4-1-1c0-0.5,0.4-1,1-1c0.5,0,1,0.4,1,1C30.8,49.1,30.4,49.5,29.9,49.5z M42.8,48.8c-0.9,0-1.7-0.7-1.7-1.7
			s0.7-1.7,1.7-1.7s1.7,0.7,1.7,1.7S43.7,48.8,42.8,48.8z M55.8,49.5c-0.5,0-1-0.4-1-1c0-0.5,0.4-1,1-1c0.5,0,1,0.4,1,1
			C56.7,49.1,56.3,49.5,55.8,49.5z"/>
		<path class="st0" d="M47.9,5.1c-2.4-0.6-4.3-2.5-4.9-4.9c-0.1-0.2-0.3-0.2-0.4,0c-0.6,2.4-2.5,4.3-4.9,4.9c-0.2,0.1-0.2,0.3,0,0.4
			C40.1,6,42,8,42.6,10.4c0.1,0.2,0.3,0.2,0.4,0C43.6,8,45.5,6,47.9,5.5C48.1,5.4,48.1,5.1,47.9,5.1z"/>
		<path class="st0" d="M66.7,19.8c-1.8-0.4-3.2-1.9-3.6-3.6c0-0.2-0.2-0.2-0.3,0c-0.4,1.8-1.9,3.2-3.6,3.6c-0.2,0-0.2,0.2,0,0.3
			c1.8,0.4,3.2,1.8,3.6,3.6c0,0.2,0.2,0.2,0.3,0c0.4-1.8,1.8-3.2,3.6-3.6C66.8,20.1,66.8,19.8,66.7,19.8z"/>
		<path class="st0" d="M26.5,19.8c-1.8-0.4-3.2-1.9-3.6-3.6c0-0.2-0.2-0.2-0.3,0c-0.4,1.8-1.9,3.2-3.6,3.6c-0.2,0-0.2,0.2,0,0.3
			c1.8,0.4,3.2,1.8,3.6,3.6c0,0.2,0.2,0.2,0.3,0c0.4-1.8,1.8-3.2,3.6-3.6C26.7,20.1,26.7,19.8,26.5,19.8z"/>
	</g>
</g>
<path class="st1" d="M83.8,106c-0.6-0.1-1.2-0.2-1.8-0.3c-0.6,0-1.1,0-1.7,0.1c0,0,0,0,0,0c-0.1,0-0.1,0-0.2,0
	c-0.2,0-0.4,0.1-0.6,0.1c0,0-0.1,0-0.1,0c-0.2,0-0.3,0.1-0.5,0.2c-0.5,0.2-0.9,0.4-1.3,0.7c-0.3,0.2-0.5,0.4-0.7,0.5
	c-0.1,0.1-0.2,0.2-0.3,0.3c-0.9,0.9-1.5,1.8-1.8,2.3c0,0,0,0.1,0,0.1v0.7h2.1c0,0,0,0,0,0c0.9,0,1.7-0.4,2.2-0.9
	c0.4-0.4,0.7-1,0.9-1.6c0-0.1,0-0.3,0-0.5c0.1,0,0.2-0.1,0.4-0.1v3.1h1.4c0.1,0,0.3,0,0.4,0c2.1-0.2,3.8-1.8,3.8-3.9
	C85.2,106.5,84.5,106.2,83.8,106z M82,109v-1.8c0.6-0.1,1.2-0.2,2-0.2C83.8,108.1,83,108.9,82,109z"/>
<path class="st1" d="M78.6,104.1c-0.4-0.6-1.1-1.1-1.9-1.2c-0.1,0-0.2,0-0.3,0h-1.9v6.4c0.3-0.5,0.8-1.1,1.4-1.7
	c0.3-0.2,0.5-0.5,0.8-0.7c0.2-0.2,0.5-0.4,0.8-0.5c0.4-0.3,0.9-0.5,1.5-0.6c0,0,0,0,0-0.1c0-0.1,0-0.3,0-0.4
	C79,104.8,78.8,104.4,78.6,104.1z M76.7,105.5h-0.5v-0.8h0.5c0.1,0,0.2,0,0.2,0.1c0,0,0,0,0.1,0c0.1,0.1,0.1,0.2,0.1,0.3
	C77.1,105.3,76.9,105.5,76.7,105.5z"/>
<path class="st2" d="M85.7,106.4c-0.6-0.4-1.4-0.7-2.2-0.8c-0.4-0.5-0.9-0.9-1.6-1v0.8c-0.6,0-1.1,0-1.7,0.1v-2.6h1.4
	c0.1,0,0.3,0,0.4,0C84,103.1,85.5,104.5,85.7,106.4z"/>
<g>
	<path class="st0" d="M150.4,33.2l0.5,1.1c-1.4,0.3-2.8,0.7-4,1.2l-0.6,0.3c1.1,0.6,2,1.3,2.7,2.3c0.7,1,1,1.9,1,2.7s-0.1,1.5-0.2,2
		c-0.1,0.5-0.3,1-0.5,1.5c-0.2,0.4-0.5,0.9-0.8,1.4c-0.3,0.5-0.6,0.9-0.9,1.2c-0.3,0.3-0.6,0.7-1,1.1c-0.4,0.4-0.7,0.7-1,0.9
		c-0.4,0.3-1,0.8-1.6,1.3c2.2,0.9,4,2,5.1,3.3c1.2,1.3,1.8,2.8,1.8,4.7c0,1.9-0.6,3.7-1.7,5.5c-1.1,1.8-2.7,3.2-4.5,4.2
		c-1.9,1-3.9,1.6-6,1.6c-2.3,0-4.1-0.6-5.4-2c-0.7-0.7-1-1.5-1-2.5c0-0.9,0.3-1.7,0.9-2.3c0.6-0.6,1.3-0.9,2.1-0.9s1.5,0.2,1.9,0.6
		c0.5,0.4,0.7,0.9,0.7,1.4s-0.1,1-0.3,1.3c-0.2,0.3-0.4,0.5-0.7,0.7c-0.3,0.2-0.5,0.3-0.8,0.4c-0.5,0.2-0.8,0.3-1,0.3
		c0,0.7,0.9,1.1,2.6,1.3c0.3,0,0.6,0,0.8,0c2.2,0,4-0.8,5.5-2.5c1.5-1.6,2.2-3.6,2.2-5.8c0-1.1-0.2-2.1-0.7-3.1
		c-0.5-0.9-1.1-1.7-1.8-2.3c-0.7-0.6-1.4-1-2.1-1.5c-0.7-0.4-1.3-0.7-1.8-0.9s-0.7-0.4-0.7-0.4c0-0.1,0.2-0.3,0.7-0.6
		c0.5-0.3,1-0.7,1.7-1.2c0.7-0.5,1.4-1.1,2-1.8c0.7-0.7,1.2-1.5,1.7-2.4c0.5-0.9,0.7-1.9,0.7-2.9c0-1-0.3-2-0.8-3.1
		c-0.5-1.1-1.3-1.9-2.3-2.3c-3,1.8-5.1,4.6-6.4,8.5c-0.6,1.6-1,3.1-1.3,4.4c-0.7,3.3-1.2,5.6-1.5,6.8c-0.3,1.3-0.9,2.7-1.9,4.2
		c-0.9,1.5-2.1,2.9-3.5,4.1c-1.4,1.2-3.1,2.2-5,2.9c-2,0.7-4.1,1.1-6.5,1.1c-3.2,0-5.8-0.7-7.8-2.2c-1.6-1.2-2.4-2.8-2.4-4.9
		c0-1.4,0.3-2.7,1-3.8c0.7-1.1,1.6-2,2.6-2.6c2.2-1.3,4.6-2,7.2-2c0-2.5,0.6-5,1.8-7.4c1.2-2.4,2.8-4.5,4.8-6.2
		c2-1.7,4.3-3.1,6.9-4.2c2.6-1.1,5.4-1.6,8.2-1.6c1,0,2.6,0.1,4.7,0.4C146.7,33.9,148.9,33.3,150.4,33.2z M120,61.1l-1.5,0.4
		c-0.3-0.7-0.5-1.6-0.8-2.8c-0.3-1.2-0.4-1.9-0.4-2.2c-1.2,0-2.4,0.2-3.6,0.5c-1.2,0.3-2.2,0.7-2.9,1.1c-0.7,0.4-1.3,1-1.8,1.7
		c-0.5,0.7-0.8,1.6-0.8,2.5c0,1,0.2,1.8,0.7,2.6c0.5,0.7,1.1,1.3,2,1.7c1.6,0.7,3.2,1.1,4.9,1.1c1.7,0,3.2-0.2,4.4-0.5
		c1.2-0.4,2.3-0.8,3.1-1.4c0.9-0.6,1.6-1.4,2.3-2.3c0.7-0.9,1.3-1.8,1.7-2.8c0.4-0.9,0.9-2,1.3-3.3c0.4-1.2,0.8-2.4,1.1-3.4
		c0.8-2.8,1.5-5.2,2.3-7.1s1.9-3.8,3.5-5.7s3.3-3.4,5.2-4.6c-0.9-0.2-2.1-0.3-3.6-0.3c-1.5,0-3.1,0.3-5,1c-1.9,0.6-3.6,1.5-5.2,2.7
		c-1.6,1.1-3,2.4-4.3,3.9c-1.3,1.5-2.3,3.1-3,4.8c-0.7,1.8-1.1,3.5-1.1,5.3c3.5,0.7,6,2,7.5,3.8l-1,1c-1.6-1.1-2.8-1.7-3.6-1.9
		c-0.8-0.2-1.3-0.3-1.4-0.3c-0.7-0.1-1.2-0.1-1.5-0.1c0.2,1.2,0.5,2.5,1,3.9L120,61.1z"/>
	<path class="st0" d="M157.1,63.9c0.1,1.8,1.3,2.7,3.7,2.7c0.9,0,1.8-0.2,2.7-0.7c0.9-0.5,1.7-1.1,2.3-1.8l1,0.7
		c-1.3,2.2-3.4,3.5-6.3,4c-0.6,0.1-1.2,0.1-1.8,0.1c-1.7,0-3.1-0.6-4.2-1.7c-1.1-1.1-1.7-2.5-1.7-4.1c0-1.6,0.5-3.1,1.5-4.5
		c1-1.4,2.2-2.4,3.7-3.2c1.5-0.8,3-1.1,4.4-1.1c1.4,0,2.7,0.3,3.8,1c1.1,0.7,1.6,1.5,1.6,2.7c0,1.1-0.3,2.1-1,2.9
		c-0.7,0.8-1.5,1.4-2.6,1.9c-2.1,0.8-4.1,1.2-6.1,1.2L157.1,63.9z M157,62.6c1.7-0.1,3.1-0.3,4.2-0.8s1.8-1.1,2.2-1.7
		c0.4-0.6,0.6-1.3,0.6-2c0-0.7-0.2-1.2-0.5-1.6c-0.4-0.3-0.7-0.5-1.2-0.5c-1,0-1.9,0.3-2.8,1c-0.8,0.7-1.5,1.5-1.9,2.5
		C157.2,60.6,157,61.6,157,62.6z"/>
	<path class="st0" d="M182.5,54.9h3.7l-1.9,7c-0.3,1-0.4,1.9-0.4,2.7s0.1,1.2,0.4,1.2c0.3,0,0.7-0.2,1.2-0.7c0.5-0.5,0.9-1,1.3-1.5
		l0.5-0.8l1,0.9c-0.5,1-1.2,1.9-2,2.8c-1.6,1.6-2.9,2.4-4.1,2.4c-1.4,0-2-1-2-3.1c0-0.3,0-0.6,0-0.8c-0.2,0.8-0.7,1.5-1.3,2.1
		c-1.3,1.2-2.7,1.8-4.3,1.8c-1.6,0-2.8-0.5-3.8-1.6c-1-1.1-1.4-2.4-1.4-4c0-2.5,0.8-4.6,2.5-6.4c1.6-1.7,3.6-2.6,5.8-2.6
		c1.1,0,2,0.3,2.7,0.9c0.7,0.6,1.2,1.4,1.4,2.4L182.5,54.9z M178.5,56.4c-0.9,0-1.8,0.4-2.6,1.1c-0.8,0.8-1.4,1.7-1.8,2.8
		s-0.6,2.1-0.6,3.1c0,1,0.2,1.8,0.7,2.5c0.4,0.6,1.1,0.9,2.1,0.9c0.9,0,1.8-0.4,2.5-1.3c1.4-1.6,2.1-3.6,2.1-5.8
		C180.9,57.5,180.1,56.4,178.5,56.4z"/>
	<path class="st0" d="M208.1,54.9c-2.1,5.6-3.2,9-3.2,10.2c0,0.5,0.1,0.8,0.4,0.8c0.7,0,1.7-1,3-3l1,1c-0.8,1.5-1.8,2.7-3,3.7
		c-1.1,1-2.1,1.5-2.8,1.5c-1.5,0-2.2-0.7-2.2-2.2c0-1.1,0.3-2.5,0.8-4.2s0.8-2.5,0.8-2.5c-0.1,0.1-0.3,0.5-0.6,1
		c-0.3,0.5-0.5,0.9-0.7,1.1s-0.4,0.6-0.7,1.1c-0.3,0.5-0.6,0.9-0.8,1.2c-0.2,0.3-0.5,0.7-0.8,1.1s-0.7,0.8-0.9,1.1
		c-0.3,0.3-0.6,0.6-1,0.9c-0.4,0.3-0.7,0.6-1.1,0.7c-0.8,0.4-1.6,0.6-2.3,0.6c-1.9,0-2.8-1-2.8-3.1c0-0.9,0.3-2.4,1-4.4
		c0.7-2,1-3.2,1-3.5c0-0.4-0.1-0.5-0.3-0.5c-0.6,0-1.5,1-2.6,3l-1.5-0.9c2.2-3.4,4.2-5.2,6.2-5.2c0.7,0,1.2,0.2,1.6,0.6
		c0.4,0.4,0.6,0.9,0.6,1.7c0,0.8-0.4,2.1-1.2,4.1c-0.7,2-1.1,3.5-1.1,4.5c0,0.6,0.3,0.8,0.8,0.8c0.6,0,1.3-0.4,2.1-1.1
		s1.6-1.7,2.4-2.8c1.2-1.7,2.5-3.8,3.8-6.1l0.6-1.1H208.1z"/>
	<path class="st0" d="M213.8,54.9c1.6-5,3.3-9.2,5-12.6l2.9,0.2c-0.2,0.5-0.6,1.7-1.3,3.6c-1.5,4.2-2.4,7.2-2.8,8.8h3.7l-0.4,1.6
		h-3.8c-1.4,4.5-2.2,7.2-2.2,8.1s0.1,1.4,0.3,1.4c0.2,0,0.4,0,0.5-0.1c0.4-0.2,1.3-1.4,2.7-3.4l1,0.9c-1.1,1.9-2.1,3.3-3.3,4.3
		c-1.1,0.9-2,1.4-2.8,1.4c-0.7,0-1.3-0.2-1.6-0.8c-0.4-0.5-0.6-1.1-0.6-1.9c0-2,0.7-5.3,2.1-9.9h-2.5l0.4-1.6H213.8z"/>
	<path class="st0" d="M222.3,60.4l-1.5-0.9c0.8-1.4,1.8-2.6,2.9-3.6s2.2-1.6,3.1-1.6c1.5,0,2.3,0.7,2.3,2c0,0.6-0.4,1.9-1.2,4.1
		c-0.8,2.2-1.2,3.6-1.2,4.2s0,1,0.1,1.1c0.1,0.2,0.3,0.2,0.5,0.2c1.4,0,2.9-0.5,4.4-1.6c1.5-1.1,2.5-2.3,3-3.6l1.6-4.8
		c0.2-0.5,0.4-0.9,0.8-1.2s0.7-0.4,1-0.4c0.3,0,0.6,0.1,0.8,0.3c0.2,0.2,0.3,0.5,0.3,0.9c0,0.4-0.1,0.7-0.2,1.1l-1.8,5.2
		c-1,3.1-2.5,6.1-4.6,9.1c1.8,0.2,3.4,0.5,4.8,1l-0.2,1.3c-2.2-0.4-4.1-0.7-5.8-0.8c-1.5,2-3.1,3.5-4.7,4.7c-1.6,1.2-3,1.8-4.2,1.8
		c-1.2,0-2.1-0.2-2.7-0.7c-0.6-0.5-0.9-1.1-0.9-2c0-0.8,0.3-1.6,0.9-2.3c0.6-0.7,1.5-1.2,2.5-1.7c2.1-0.9,4.6-1.4,7.4-1.5
		c0.2-0.2,0.7-1.1,1.6-2.7c0.8-1.5,1.3-2.5,1.3-2.9c-2.8,2.4-5.2,3.5-7.4,3.5c-0.9,0-1.5-0.3-1.9-0.9s-0.6-1.3-0.6-2.2
		c0-0.9,0.3-2.3,1-4.4c0.7-2.1,1-3.3,1-3.6s-0.1-0.4-0.2-0.4c-0.1,0-0.3,0-0.4,0.1c-0.2,0.1-0.3,0.2-0.5,0.3
		c-0.1,0.1-0.3,0.3-0.4,0.4c-0.1,0.1-0.3,0.3-0.4,0.6c-0.1,0.2-0.3,0.4-0.3,0.5C222.6,59.9,222.4,60.3,222.3,60.4z M229.1,72.6
		c-1.3,0.1-2.6,0.3-3.9,0.7c-2.5,0.7-3.8,1.6-3.8,2.5c0,0.6,0.4,0.9,1.1,0.9c0.7,0,1.9-0.5,3.5-1.6
		C227.7,74.1,228.7,73.3,229.1,72.6z"/>
	<path class="st0" d="M249.2,66c-0.9-1.1-1.3-2.3-1.3-3.5c0-1.3,0.2-2.4,0.6-3.3s1-1.7,1.7-2.3c0.7-0.6,1.6-1.2,2.5-1.6
		c1.7-0.8,3.7-1.2,5.9-1.3c0.1-2.6,0.7-5.1,1.8-7.4c1-2.4,2.4-4.4,4.1-6.2c1.7-1.8,3.8-3.2,6.2-4.2c2.4-1.1,5-1.6,7.8-1.6
		c2.6,0,5,0.6,7.1,1.9c1.1,0.6,2,1.5,2.6,2.6c0.7,1.1,1,2.4,1,4s-0.4,3.2-1.2,4.9c-0.8,1.7-1.8,3.1-3.2,4.3
		c-2.8,2.5-5.9,3.9-9.4,4.3c-1.4,4-3.7,7.2-6.9,9.4c-3.2,2.2-7.1,3.3-11.6,3.3C253.6,69.3,251,68.2,249.2,66z M250.5,59.9
		c-0.6,0.8-0.9,1.7-0.9,2.7s0.3,1.8,0.8,2.5c0.5,0.7,1.2,1.2,2,1.6c1.7,0.8,3.4,1.2,5.2,1.2c2.9,0,5.4-0.9,7.8-2.7
		c2.3-1.8,4.1-4.1,5.3-6.9c0.5-1.1,1-2.8,1.5-5.1s0.9-3.9,1.2-4.7c1.8-5.3,4.3-9,7.4-11c-0.2-0.2-0.7-0.4-1.5-0.5
		c-0.8-0.2-1.7-0.2-2.6-0.2c-2.1,0-4.1,0.5-6.2,1.5c-2,1-3.8,2.3-5.3,3.9s-2.7,3.5-3.7,5.6c-0.9,2.1-1.4,4.2-1.4,6.3
		c2.3,0.4,4.6,1.3,6.8,2.8l-1,1.6c-2.1-1.2-4-1.8-5.6-1.8c0,0.3,0.1,1.1,0.4,2.1c0.3,1.1,0.5,2.1,0.9,2.9l-1.4,0.4
		c-0.4-0.6-0.7-1.5-1-2.7s-0.4-2.1-0.5-2.8c-2,0-3.9,0.5-5.9,1.4C251.9,58.4,251.1,59,250.5,59.9z M282.5,38.4
		c-1.7,1.8-3.1,4.1-4.2,7.1c-1.1,2.9-1.9,6.2-2.3,9.8c1.2,0,2.4-0.4,3.7-1.1s2.2-1.6,3.1-2.7c0.9-1.1,1.6-2.3,2.1-3.6
		c0.5-1.3,0.8-2.4,0.8-3.2s0-1.5-0.1-1.9c-0.1-0.5-0.2-1-0.4-1.6C284.7,39.8,283.8,38.9,282.5,38.4z"/>
	<path class="st0" d="M296.7,57.4c-0.6,0-1.3,0.4-2.1,1.1c-0.8,0.8-1.6,1.7-2.4,2.8c-1.2,1.8-2.5,3.8-3.7,6.1l-0.6,1.1h-3.3l0.7-2.2
		c1.4-4.1,2.1-6.5,2.1-7.3c0-0.8-0.1-1.1-0.4-1.1c-0.5,0-1,0.5-1.6,1.6c-0.1,0.3-0.3,0.5-0.4,0.6c-0.1,0.1-0.2,0.3-0.3,0.5
		c-0.1,0.2-0.2,0.3-0.2,0.4l-1.6-0.9c1.2-2,2.3-3.5,3.4-4.4c1-1,2.1-1.4,3.1-1.4c0.5,0,0.9,0.2,1.3,0.6c0.4,0.4,0.5,0.9,0.5,1.5
		c0,0.6,0,1.1-0.1,1.5c-0.1,0.4-0.1,0.8-0.2,1.2c-0.1,0.4-0.2,0.8-0.3,1.3c-0.1,0.5-0.3,0.9-0.3,1.2c-0.1,0.3-0.2,0.6-0.3,1.1
		c-0.1,0.5-0.2,0.7-0.3,0.8c0.3-0.6,0.8-1.4,1.4-2.5c0.7-1.1,1.1-1.8,1.3-2.1c0.2-0.3,0.5-0.7,0.8-1.1s0.7-0.8,1-1.1
		c0.3-0.3,0.6-0.6,1-0.9c0.4-0.3,0.8-0.6,1.1-0.8c0.9-0.4,1.7-0.6,2.5-0.6c0.8,0,1.5,0.2,2,0.7c0.5,0.5,0.7,1,0.7,1.7
		c0,0.6-0.2,1.2-0.6,1.7c-0.4,0.5-0.9,0.7-1.4,0.7s-0.9-0.1-1.2-0.3c-0.3-0.2-0.5-0.4-0.6-0.6C297.2,57.7,296.9,57.4,296.7,57.4z"/>
	<path class="st0" d="M300.7,63c0-1.2,0.3-2.3,0.9-3.4c0.6-1.1,1.3-2,2.2-2.8c2-1.6,4.1-2.5,6.2-2.5c2.1,0,3.8,0.6,5.1,1.7
		c1.3,1.1,2,2.5,2,4.2s-0.5,3.2-1.4,4.5c-0.9,1.3-2.1,2.4-3.6,3.1c-1.5,0.7-3.2,1.1-4.9,1.1c-1.8,0-3.3-0.6-4.6-1.7
		C301.4,66.2,300.7,64.7,300.7,63z M308.4,67.5c0.7,0,1.4-0.2,2-0.7c0.6-0.5,1.1-1.1,1.4-1.8c0.6-1.4,1-2.9,1-4.5s-0.3-2.7-0.8-3.5
		c-0.6-0.8-1.4-1.2-2.4-1.2c-1,0-2.1,0.7-3.1,2s-1.5,3.1-1.5,5.2C305.1,66,306.2,67.5,308.4,67.5z"/>
	<path class="st0" d="M330.5,65.7c-1.6,2.2-3.6,3.3-5.9,3.3c-1.5,0-2.8-0.6-3.9-1.7c-1.1-1.1-1.6-2.6-1.6-4.3c0-2.3,0.9-4.4,2.6-6.1
		c1.8-1.7,3.7-2.6,5.9-2.6c1.1,0,2.1,0.2,2.9,0.7c0.8,0.4,1.3,1.1,1.6,1.8c0.7-3,1.8-6.4,3.1-10.3c1.4-3.9,2.6-7,3.8-9.3h3.8
		c-1.5,2.9-3.3,7.8-5.4,14.7c-2.1,6.9-3.2,11.2-3.2,13c0,0.6,0.1,0.9,0.4,0.9c0.6,0,1.6-1,3-3l1,0.9c-1,1.8-2.1,3.1-3.2,3.9
		s-2,1.3-2.7,1.3c-0.7,0-1.2-0.2-1.6-0.7c-0.4-0.5-0.6-1.2-0.6-2.2c0,0,0-0.1,0-0.2C330.5,65.8,330.5,65.7,330.5,65.7z M323.3,62.8
		c0,2.5,1,3.8,2.9,3.8c1.8,0,3.3-1.2,4.5-3.7c0.5-1.1,0.8-2.1,0.8-2.8c0-2.5-1-3.8-2.9-3.8c-1.3,0-2.5,0.6-3.6,1.8
		C323.9,59.3,323.3,60.9,323.3,62.8z"/>
	<path class="st0" d="M358.4,54.9c-2.1,5.6-3.2,9-3.2,10.2c0,0.5,0.1,0.8,0.4,0.8c0.7,0,1.7-1,3-3l1,1c-0.8,1.5-1.8,2.7-3,3.7
		c-1.1,1-2.1,1.5-2.8,1.5c-1.5,0-2.2-0.7-2.2-2.2c0-1.1,0.3-2.5,0.8-4.2c0.5-1.6,0.8-2.5,0.8-2.5c-0.1,0.1-0.3,0.5-0.6,1
		c-0.3,0.5-0.5,0.9-0.7,1.1s-0.4,0.6-0.7,1.1c-0.3,0.5-0.6,0.9-0.8,1.2c-0.2,0.3-0.5,0.7-0.8,1.1c-0.4,0.5-0.7,0.8-0.9,1.1
		c-0.3,0.3-0.6,0.6-1,0.9c-0.4,0.3-0.7,0.6-1.1,0.7c-0.8,0.4-1.6,0.6-2.3,0.6c-1.9,0-2.8-1-2.8-3.1c0-0.9,0.3-2.4,1-4.4
		c0.7-2,1-3.2,1-3.5c0-0.4-0.1-0.5-0.3-0.5c-0.6,0-1.5,1-2.6,3l-1.5-0.9c2.2-3.4,4.2-5.2,6.2-5.2c0.7,0,1.2,0.2,1.6,0.6
		c0.4,0.4,0.6,0.9,0.6,1.7c0,0.8-0.4,2.1-1.2,4.1c-0.7,2-1.1,3.5-1.1,4.5c0,0.6,0.3,0.8,0.8,0.8c0.6,0,1.3-0.4,2.1-1.1
		c0.8-0.8,1.6-1.7,2.4-2.8c1.2-1.7,2.5-3.8,3.8-6.1l0.6-1.1H358.4z"/>
	<path class="st0" d="M373.2,63.7l1,0.7c-0.7,1.4-1.8,2.5-3.2,3.3c-1.4,0.8-2.9,1.2-4.5,1.2s-2.9-0.5-4-1.4c-1.1-1-1.6-2.3-1.6-4.1
		s0.5-3.3,1.6-4.8c1.1-1.4,2.4-2.5,4-3.2c1.6-0.7,3.2-1.1,4.8-1.1c2,0,3.3,0.5,4,1.4c0.3,0.4,0.4,0.9,0.4,1.4c0,0.6-0.2,1.1-0.6,1.4
		c-0.4,0.4-0.9,0.6-1.4,0.6c-0.6,0-1-0.2-1.4-0.5c-0.4-0.4-0.6-0.8-0.6-1.4c0-0.5,0.3-1.1,1-1.5c-0.6-0.2-1.1-0.3-1.6-0.3
		c-1.1,0-2.1,0.4-3,1.2c-0.9,0.8-1.6,1.8-2.1,2.9c-0.5,1.1-0.7,2.3-0.7,3.4c0,1.1,0.3,2,0.8,2.7s1.3,1,2.3,1c1,0,1.9-0.3,2.9-0.8
		C372.1,65.3,372.7,64.6,373.2,63.7z"/>
	<path class="st0" d="M380,54.9c1.6-5,3.3-9.2,5-12.6l2.9,0.2c-0.2,0.5-0.6,1.7-1.3,3.6c-1.5,4.2-2.4,7.2-2.8,8.8h3.7l-0.4,1.6h-3.8
		c-1.4,4.5-2.2,7.2-2.2,8.1s0.1,1.4,0.3,1.4c0.2,0,0.4,0,0.5-0.1c0.4-0.2,1.3-1.4,2.7-3.4l1,0.9c-1.1,1.9-2.1,3.3-3.3,4.3
		c-1.1,0.9-2,1.4-2.8,1.4s-1.3-0.2-1.6-0.8s-0.6-1.1-0.6-1.9c0-2,0.7-5.3,2.1-9.9H377l0.4-1.6H380z"/>
	<path class="st0" d="M389.5,68.4c-1-0.4-1.8-0.8-2.2-1.3c-0.4-0.5-0.7-1-0.7-1.6s0.2-1.1,0.5-1.5c0.3-0.4,0.8-0.6,1.3-0.6
		s1,0.2,1.4,0.5c0.4,0.3,0.6,0.8,0.6,1.4c0,0.6-0.4,1.1-1.1,1.5c0.6,0.5,1.5,0.8,2.7,0.8c2.7,0,4-0.8,4-2.3c0-0.9-0.8-1.7-2.5-2.3
		c-0.7-0.2-1.4-0.5-2.1-0.8c-0.7-0.3-1.3-0.7-1.8-1.2c-0.5-0.5-0.8-1.1-0.8-1.9c0-1.1,0.4-2,1.1-2.7c1.3-1.4,3.3-2.1,6-2.1
		c1.3,0,2.5,0.2,3.5,0.7c1,0.5,1.5,1.1,1.5,1.9s-0.2,1.4-0.6,1.7c-0.4,0.3-0.9,0.5-1.4,0.5c-0.5,0-1-0.1-1.4-0.4
		c-0.4-0.3-0.6-0.7-0.6-1.2s0.3-1,0.9-1.3c-0.4-0.3-1-0.4-2-0.4c-0.9,0-1.8,0.1-2.5,0.4c-0.7,0.3-1.1,0.6-1.1,1.1
		c0,0.5,0.3,0.9,0.8,1.2c0.5,0.3,1.2,0.6,2,0.9c0.8,0.3,1.5,0.6,2.3,0.9s1.4,0.8,2,1.5c0.5,0.6,0.8,1.4,0.8,2.4
		c0,0.9-0.4,1.8-1.2,2.6c-1.5,1.5-3.5,2.2-6,2.2C391.8,69,390.6,68.8,389.5,68.4z"/>
	<path class="st0" d="M454.3,33.2l0.5,1.1c-1.4,0.3-2.8,0.7-4,1.2l-0.6,0.3c1.1,0.6,2,1.3,2.7,2.3c0.7,1,1,1.9,1,2.7s-0.1,1.5-0.2,2
		c-0.1,0.5-0.3,1-0.5,1.5c-0.2,0.4-0.5,0.9-0.8,1.4c-0.3,0.5-0.6,0.9-0.9,1.2c-0.3,0.3-0.6,0.7-1,1.1c-0.4,0.4-0.7,0.7-1,0.9
		c-0.4,0.3-1,0.8-1.6,1.3c2.3,0.9,4,2,5.1,3.3c1.2,1.3,1.8,2.8,1.8,4.7c0,1.9-0.6,3.7-1.7,5.5c-1.1,1.8-2.6,3.2-4.5,4.2
		c-1.9,1-3.9,1.6-6,1.6c-2.3,0-4.1-0.6-5.4-2c-0.7-0.7-1-1.5-1-2.5c0-0.9,0.3-1.7,0.9-2.3c0.6-0.6,1.3-0.9,2.1-0.9
		c0.8,0,1.5,0.2,1.9,0.6c0.5,0.4,0.7,0.9,0.7,1.4s-0.1,1-0.3,1.3c-0.2,0.3-0.4,0.5-0.7,0.7c-0.3,0.2-0.5,0.3-0.8,0.4
		c-0.5,0.2-0.8,0.3-1,0.3c0,0.7,0.9,1.1,2.6,1.3c0.3,0,0.6,0,0.8,0c2.2,0,4-0.8,5.5-2.5c1.5-1.6,2.2-3.6,2.2-5.8
		c0-1.1-0.2-2.1-0.7-3.1c-0.5-0.9-1.1-1.7-1.8-2.3s-1.4-1-2.1-1.5c-0.7-0.4-1.3-0.7-1.8-0.9c-0.5-0.2-0.7-0.4-0.7-0.4
		c0-0.1,0.2-0.3,0.7-0.6c0.5-0.3,1-0.7,1.7-1.2c0.7-0.5,1.4-1.1,2-1.8c0.7-0.7,1.2-1.5,1.7-2.4c0.5-0.9,0.7-1.9,0.7-2.9
		c0-1-0.3-2-0.8-3.1c-0.5-1.1-1.3-1.9-2.3-2.3c-3,1.8-5.1,4.6-6.4,8.5c-0.6,1.6-1,3.1-1.3,4.4c-0.7,3.3-1.2,5.6-1.5,6.8
		c-0.3,1.3-0.9,2.7-1.9,4.2c-0.9,1.5-2.1,2.9-3.5,4.1c-1.4,1.2-3.1,2.2-5.1,2.9c-2,0.7-4.1,1.1-6.5,1.1c-3.2,0-5.8-0.7-7.8-2.2
		c-1.6-1.2-2.4-2.8-2.4-4.9c0-1.4,0.3-2.7,1-3.8c0.7-1.1,1.6-2,2.6-2.6c2.2-1.3,4.6-2,7.2-2c0-2.5,0.6-5,1.8-7.4
		c1.2-2.4,2.8-4.5,4.7-6.2c2-1.7,4.3-3.1,6.9-4.2c2.7-1.1,5.4-1.6,8.2-1.6c1,0,2.6,0.1,4.7,0.4C450.6,33.9,452.8,33.3,454.3,33.2z
		 M423.9,61.1l-1.5,0.4c-0.3-0.7-0.5-1.6-0.8-2.8s-0.4-1.9-0.4-2.2c-1.2,0-2.4,0.2-3.6,0.5c-1.2,0.3-2.2,0.7-2.9,1.1
		c-0.7,0.4-1.3,1-1.8,1.7c-0.5,0.7-0.8,1.6-0.8,2.5c0,1,0.2,1.8,0.7,2.6c0.5,0.7,1.2,1.3,2,1.7c1.6,0.7,3.2,1.1,4.9,1.1
		c1.7,0,3.2-0.2,4.4-0.5c1.2-0.4,2.3-0.8,3.1-1.4c0.9-0.6,1.6-1.4,2.3-2.3c0.7-0.9,1.3-1.8,1.7-2.8c0.4-0.9,0.9-2,1.3-3.3
		c0.4-1.2,0.8-2.4,1.1-3.4c0.8-2.8,1.5-5.2,2.3-7.1c0.8-1.9,1.9-3.8,3.5-5.7c1.5-1.9,3.3-3.4,5.2-4.6c-0.9-0.2-2.1-0.3-3.6-0.3
		c-1.5,0-3.1,0.3-5,1c-1.9,0.6-3.6,1.5-5.2,2.7c-1.6,1.1-3,2.4-4.3,3.9c-1.3,1.5-2.3,3.1-3,4.8c-0.7,1.8-1.1,3.5-1.1,5.3
		c3.5,0.7,6,2,7.5,3.8l-1,1c-1.6-1.1-2.8-1.7-3.6-1.9c-0.8-0.2-1.3-0.3-1.4-0.3c-0.7-0.1-1.2-0.1-1.5-0.1c0.2,1.2,0.5,2.5,1,3.9
		L423.9,61.1z"/>
	<path class="st0" d="M463.5,59.4l-1.6,0.7c-1.7-3.3-2.6-6.5-2.6-9.6c0-3.8,1.2-7.1,3.7-9.8c2.4-2.6,5.3-4.4,8.9-5.4
		c1.7-0.5,3.6-0.7,5.5-0.7s3.7,0.2,5.2,0.6c1.6,0.4,3,1.1,4.4,2.3c1.5-1.2,3.5-1.8,6.2-1.8l0.5,1.5c-2.5,0.5-4.2,1.1-5.1,1.7
		c1.6,1.5,2.9,3.5,3.7,6c0.8,2.5,1.3,4.8,1.3,7.1c0,2.3-0.1,4.2-0.4,5.7c-0.3,1.5-0.7,3-1.3,4.4s-1.4,2.5-2.3,3.5
		c-1.9,2.1-4.4,3.1-7.5,3.1c-3.1,0-6.4-0.8-9.9-2.3c-0.8,0.6-2,1.2-3.6,1.7c-1.5,0.5-3,0.8-4.3,0.8c-2.7,0-4-1-4-3.1
		c0-1.2,0.7-2.3,2.1-3.1c1.4-0.8,3.1-1.2,5.1-1.2c2.1,0,4.1,0.5,6.1,1.5c1.8-2.3,3.1-5.4,4.1-9.5c0.4-1.6,0.9-3.2,1.4-4.9
		c1.2-3.8,3.3-7.1,6.3-9.8c-0.8-0.8-1.9-1.4-3.3-1.8c-1.4-0.4-2.7-0.6-4-0.6c-3,0-5.7,0.6-8.1,1.8c-2.4,1.2-4.3,2.9-5.7,5.3
		c-1.4,2.4-2.1,5.1-2.1,8.3C462.2,53.9,462.6,56.5,463.5,59.4z M470.6,65.3c-2.2-0.9-4.2-1.3-6-1.3c-1.9,0-2.8,0.6-2.8,1.7
		c0,1,0.9,1.5,2.6,1.5c1,0,2-0.2,3.2-0.5C468.7,66.3,469.7,65.8,470.6,65.3z M490.8,52c0-2.3-0.4-4.5-1-6.6
		c-0.7-2.1-1.6-3.7-2.7-4.9c-0.9,1.4-1.7,3.6-2.3,6.5c-1.1,5.1-2.8,9.3-5.3,12.4c-1.2,1.5-2.5,2.9-4.1,4.1c3,1.6,5.6,2.4,7.8,2.4
		c2.2,0,3.8-0.7,5-2.2c1.2-1.5,1.9-3.3,2.3-5.3C490.6,56.5,490.8,54.3,490.8,52z"/>
</g>
<g>
	<g>
		<g>
			<path class="st3" d="M27.6,98.3c-2-0.5-3.6-2.1-4-4c0-0.2-0.3-0.2-0.3,0c-0.5,2-2.1,3.6-4,4c-0.2,0-0.2,0.3,0,0.3
				c2,0.5,3.6,2,4,4c0,0.2,0.3,0.2,0.3,0c0.5-2,2-3.6,4-4C27.7,98.6,27.7,98.3,27.6,98.3z"/>
			<path class="st3" d="M42.8,96.8c0,2.9-1.6,14.1-17,14.2c-2.2,0-14.4-0.2-18-11.2C6.7,96.4,6.8,92.6,8,89.1
				c3.9-11.6,16.5-13.2,19.5-21.7c-3.9,3.9-28.6,11-24,31.2c-15.2-26.9,24-26,26.3-36.4C33.8,75.4,9.8,76.5,9.3,95.3
				c-0.1,1.4,1.1,12.2,13.9,12.8c7.7-0.2,17.5-9.9,8.5-19.1c-1.1,1.4-2.3,2.6-5.3,1.5c-1.5-0.4-14.6-5.6-11.3,13.4
				c-1.6-1.6-2.9-2.6-3.4-5c-0.3-1.4-0.1-2.8,0.3-4.1c0.9-2.5,3.2-6.4,10-6.3c2.1-0.1,7.5,2.5,8,0c0.2-0.8,0.9-1.7,1.4-2.1
				c0.2-0.2,0.2-0.6,0.1-0.8c-0.1-0.1-0.2-0.2-0.2-0.4c-0.1-0.1,0-0.3,0.1-0.4c0.5-0.1,1.4-0.3,1.6-1.9c0.2-1.3,2.4-0.5,2.6-2.2
				c-0.1-1.9-1.6-2.9-1.4-5.3c0-1.2,8-15.2-10.4-16.3h-9.3v6.9c1.4-0.3,8.2-1.1,12.1-4.9c-1.6,7.9-23.6,6.9-25.8,16.7
				c-0.6-1.6-1.6-8.1,7.2-10.8C8.2,64,8,60.3,2,58h22.6c3,0.2,12.8,0,12.7,10.3c-0.2,6.4-3.4,6.2-0.7,11.2c0.3,0.5,0.4,1.1,0.3,1.7
				c-0.2,0.7-0.6,1.5-2,1.6c-0.6,0.1-1.7,0.7,0.7,1.9C37.3,85.8,43.1,89.3,42.8,96.8z"/>
			<path class="st3" d="M13,110H2.1c-0.4,0-0.5-0.5-0.2-0.7c1.7-0.8,4.3-2.2,5.7-4.8c0.6,0.7,4.1,3.5,5.6,4.8
				C13.5,109.6,13.3,110,13,110z"/>
		</g>
	</g>
	<g>
		<g>
			<path class="st3" d="M90.9,76.9c0-1.3,0.4-17.8-26.5-17.7c-0.4-0.3-1.4-0.5-1.8,0c-0.4,0-19.6,1.3-22.4,16.8
				c-0.3,1.7-0.3,3.5,0.1,5.2c0.7,3.1,2.7,7,9.2,7.3c1.3,0,7.5-0.5,7.7-7.6c0-0.9-0.8-3.2-3.4-3.2c-0.8,0.1-3.1,0.6-3.3,3.3
				c0.2,2.9,2.9,2.8,2.6,4.2c0,0.3,0,1.7-4,1.8c-0.6-0.1-6.2-0.1-7.6-6.6c-0.4-1.6-0.4-3.4,0-5c0.9-4.2,4.5-13.1,20.6-14.9
				c0.1,0.8,0.1,1.7,0.5,2.7c-0.3,0.2-1.6,0.5-1.6,2.1c-0.4,0-2.7,0.4-2.7,0.4c-0.6,0-1.1,1.2,0,1.4c0.3,0,1.3,0,1.5,1.5
				c-0.5-0.3-6.9-3.6-7.7-4.4c-0.6-0.6-2.4-0.4-1.9,0.9c0.4,0.7,1,1.7,0.9,2.5c-0.1,0.4-0.9,0.8-0.5,2.5c-0.2,0.3-0.9,0.7-0.8,2
				c0,0.4-0.3,0.9,0.2,3.3c-0.3,2.2-1.7,2.7-1.7,4.3c0,0.6,0.4,3.9,3.3,5.8c0.3,0.2,1.1,0.7,1.1-0.6c-0.1-0.5-0.9-0.7-1.1-1
				c-0.4-0.4-1.6-1.3-1.5-3.3c0-0.4,0.2-1.9,1.9-3c0-0.4-0.1-0.8,1.1-0.6c1.1,0.1,3.7,0.4,4.2,0.6c-0.4,0.1-1,0.4-1,0.4
				c0.3,0.3,1.5,1.5,1.3,3.5c-0.1,0.5-0.4,4.5-4.6,6.5c-0.3,0.1-0.5,0.4-0.5,0.8c-0.1,0.1-0.5,0.5-0.8,0.9c-0.3,0.3-0.6,0.6-0.6,0.6
				c-0.1,0.3-0.5,1,0.5,2c0.2,0.3,0.5,0.9-0.3,1.7c-0.5,0.5-0.9,1.3-0.9,1.3c0,0.5,0,1.6,0,1.6c-0.5,1-2.4,1.6-2.7,3.1
				c0,0.1,0,0.2,0,0.3c0,0.2,0.1,0.6,0.5,0.9c0.7,0.4,1.5,0.3,2.1-0.2c0.5-0.4,1.1-1.2,1.6-2.5c0.2,0,1.3,0.8,2.1,0.8
				c2.8-0.3,2-3.8,6-4.4V108c0,0.9-0.7,1.6-1.6,1.6h-0.2c-0.4,0-0.7,0.3-0.7,0.7c0,0.2,0.1,0.4,0.2,0.5c0.1,0.1,0.3,0.2,0.5,0.2h9.9
				c0.4,0,0.7-0.3,0.7-0.7v0c0-0.4-0.3-0.7-0.7-0.7h-0.1c-0.9,0-1.6-0.7-1.6-1.6l0-13.7h3.8C72.5,94.2,91.3,95.3,90.9,76.9z
				 M65.3,63.2c0.1-0.2,0.2-0.2,0.5,0c0.4,0.5,2,2.7,1.8,3.6c0,0.1-0.1,0.1-0.2,0.1c-0.4-0.5-1.7-2.2-2.1-3.1
				C65.2,63.7,65.2,63.4,65.3,63.2z M67.7,68.7c3.4-0.1,4,13.3,4.1,15.2c0,0,0,0,0,0c-1.4-6.1-5.1-9.7-5.5-12.7
				C66,69.1,67.3,68.7,67.7,68.7z M64.6,65.5c0.2,0.2,0.8,0.7,0.8,1.8c0,0,0,0-0.1,0C65.1,67.1,64.5,66.3,64.6,65.5
				C64.5,65.5,64.5,65.5,64.6,65.5z M63.2,67c0.3,0.2,1,0.7,1.2,1.6c0,0,0,0.1-0.1,0.1c-0.3-0.2-1.2-0.7-1.2-1.6
				C63.1,67,63.2,66.9,63.2,67z M62.3,68.7c0.3,0,1.1,0.2,1.6,1.5c0,0,0,0.1-0.1,0.1c-0.4-0.1-1.6-0.7-1.6-1.5
				C62.2,68.8,62.2,68.7,62.3,68.7z M52.4,72c0.4,0,1.3-0.1,1.8,0.7c0,0.1,0,0.1-0.1,0.1c-0.4,0.1-1.6,0-1.9-0.7
				C52.3,72.1,52.3,72,52.4,72z M54.3,74.9c-0.3,0.3-1.4,0.9-2.1,0c0,0,0.9-1,2.1-0.1C54.3,74.8,54.3,74.8,54.3,74.9z M54.9,71.2
				c-0.6,0.2-1.4-1.1-1.6-1.4c0,0,0-0.1,0-0.1c0.9,0.1,1.6,0.8,1.7,1.2C55.1,71.1,55,71.2,54.9,71.2z M55.5,68.9
				c-0.7-0.3-2.5-1.2-2.6-1.9c0-0.2,0.1-0.3,0.3-0.3c0.3,0,1,0.2,2,1.1c0.6,0.5,2.1,1.7,2.4,2.3c0.1,0.1-0.1,0.3-0.2,0.2
				c-0.2-0.1-0.7-0.3-1.7-1.2C55.7,69,55.6,69,55.5,68.9z M56.7,74.6c-1.5-2.4,1-2.7,1.3-2.7c7.3,1.5,11.8,11,12.3,12.1c0,0,0,0,0,0
				C64.6,77.8,58.4,77.2,56.7,74.6z M60.1,80.7c-0.1-0.1-0.1-0.2-0.2-0.3c-0.3-0.8,0.6-0.9,0.8-0.9c3.8,0.1,8.3,5.1,8.7,5.6
				c0,0,0,0,0,0c-2.1-1.4-7.2-1.4-8-1.5c-3.3-0.4-3.1-1.4-3.1-1.6c0-0.9,1.2-0.5,1.6-0.4c0.1,0,0.2,0,0.3,0
				C60.8,81.6,60.4,81.1,60.1,80.7z M58.5,86.9c0.8-0.7,2.2-0.6,2.9-0.7c5.1-0.2,7.9,1.2,8.8,1.8c0,0,0,0.1,0,0.1
				c-2.7-0.8-8.4,0.4-9.8,0.5c-0.8,0.1-1.3-0.1-1.7-0.2C58.1,88.2,58,87.4,58.5,86.9z M54.9,88.5c0.1-0.2,0.4-0.6,1.3-0.7
				c0.1,0,0.1,0.1,0.1,0.1c-0.2,0.3-0.6,0.9-1.3,0.7C54.9,88.6,54.8,88.5,54.9,88.5z M54.7,90.3c0.3-0.1,1.1-0.4,2.2-0.3
				c0.1,0,0.1,0.1,0,0.1c-0.4,0.3-1.3,0.8-2.3,0.3C54.6,90.4,54.6,90.4,54.7,90.3z M54.9,96.2c-0.3,0.4-1,1-2.1,0.7
				c-0.1,0-0.1-0.1-0.1-0.2c0.2-0.3,0.8-1.1,2.1-0.7C54.9,95.9,54.9,96.1,54.9,96.2z M55.7,92.9c-0.4,0.1-1.6,0.1-2.1-0.7
				c0,0,0-0.1,0.1-0.1c0.3,0,1.4-0.1,2.1,0.7C55.8,92.8,55.8,92.8,55.7,92.9z M56.9,95c-1.1,0.5-0.8-0.4-0.7-0.7
				c1.1-0.9,1.8-1.9,2.3-2.5c0.3-0.4,0.6-0.7,1-0.9c4.6-2.6,9.7-2,9.7-2C67.3,88.7,57.7,94.5,56.9,95z M66.6,92.9v-1.5
				c0,0,2.9-1.5,3.6-1.6c-0.2,0.3-1.9,2.8-2,3.1C67.5,92.9,66.6,92.9,66.6,92.9z M69.9,92.9c0.5-0.9,0.9-2,1.1-2.9
				c2.2-1.4,2.6-2.7,2.7-3.3c0-0.2,0.2-0.3,0.3-0.3c1.5-0.2,1.1-1.1,0.9-1.4c3.6-5.4,2.5-7.3,1.9-7.9c-0.2-0.1-0.3-0.2-0.5-0.3
				c-0.4-0.1-0.4,0.1-0.3,0.3c0,0.1,0.1,0.2,0.2,0.3c2.1,2.6-0.9,6.8-1.2,7.2c-0.3,0.4-0.4,0.3-0.4,0c1.9-6.4-0.9-7.2-1-7.2
				c-0.9-0.1-0.5,0.4-0.3,0.5c2.7,1.7,1.2,6.4,1.1,6.7c-0.9,0.3-1,1.3-1.7,1.5c0.4-18.3-7-25.5-7-25.5
				C92.2,60.9,89.2,94.1,69.9,92.9z"/>
		</g>
	</g>
	<g>
		<g>
			<path class="st3" d="M156.4,87.5l-2.9,5.7v3h-1.7v-3l-2.9-5.7h2l1.9,4l1.9-4H156.4z"/>
			<path class="st3" d="M161.9,95.7c-0.7-0.4-1.2-0.9-1.6-1.6c-0.4-0.7-0.6-1.4-0.6-2.3c0-0.8,0.2-1.6,0.6-2.3
				c0.4-0.7,0.9-1.2,1.6-1.6c0.7-0.4,1.4-0.6,2.2-0.6c0.8,0,1.6,0.2,2.2,0.6c0.7,0.4,1.2,0.9,1.6,1.6s0.6,1.4,0.6,2.3
				c0,0.9-0.2,1.6-0.6,2.3c-0.4,0.7-0.9,1.2-1.6,1.6c-0.7,0.4-1.4,0.6-2.2,0.6C163.4,96.3,162.6,96.1,161.9,95.7z M165.6,94.4
				c0.4-0.2,0.7-0.6,0.9-1c0.2-0.4,0.3-0.9,0.3-1.5c0-0.6-0.1-1.1-0.3-1.5c-0.2-0.4-0.5-0.8-0.9-1c-0.4-0.2-0.9-0.3-1.4-0.3
				s-1,0.1-1.4,0.3c-0.4,0.2-0.7,0.6-0.9,1c-0.2,0.4-0.3,0.9-0.3,1.5c0,0.6,0.1,1.1,0.3,1.5c0.2,0.4,0.5,0.8,0.9,1
				c0.4,0.2,0.9,0.4,1.4,0.4S165.2,94.6,165.6,94.4z"/>
			<path class="st3" d="M174.4,87.5v5.4c0,0.6,0.2,1,0.5,1.3c0.3,0.3,0.7,0.5,1.3,0.5c0.6,0,1-0.2,1.3-0.5c0.3-0.3,0.5-0.8,0.5-1.3
				v-5.4h1.7v5.4c0,0.7-0.2,1.4-0.5,1.9c-0.3,0.5-0.7,0.9-1.3,1.1c-0.5,0.3-1.1,0.4-1.8,0.4c-0.6,0-1.2-0.1-1.8-0.4
				c-0.5-0.3-0.9-0.6-1.2-1.1c-0.3-0.5-0.5-1.1-0.5-1.9v-5.4H174.4z"/>
			<path class="st3" d="M188.5,96.2l-1.9-3.4h-0.8v3.4H184v-8.7h3.3c0.7,0,1.2,0.1,1.7,0.4c0.5,0.2,0.8,0.6,1.1,1
				c0.2,0.4,0.4,0.9,0.4,1.3c0,0.6-0.2,1.1-0.5,1.5c-0.3,0.5-0.8,0.8-1.5,1l2.1,3.5H188.5z M185.8,91.5h1.5c0.5,0,0.8-0.1,1.1-0.3
				c0.2-0.2,0.3-0.5,0.3-1c0-0.4-0.1-0.7-0.3-0.9c-0.2-0.2-0.6-0.3-1.1-0.3h-1.5V91.5z"/>
			<path class="st3" d="M202.2,88.9v2.2h2.9v1.4h-2.9v2.3h3.3v1.4h-5v-8.7h5v1.4H202.2z"/>
			<path class="st3" d="M217.5,87.5l-3.2,8.7h-2.1l-3.2-8.7h1.9l2.4,6.9l2.4-6.9H217.5z"/>
			<path class="st3" d="M223.1,88.9v2.2h2.9v1.4h-2.9v2.3h3.3v1.4h-5v-8.7h5v1.4H223.1z"/>
			<path class="st3" d="M235.1,96.2l-1.9-3.4h-0.8v3.4h-1.7v-8.7h3.3c0.7,0,1.2,0.1,1.7,0.4c0.5,0.2,0.8,0.6,1.1,1
				c0.2,0.4,0.4,0.9,0.4,1.3c0,0.6-0.2,1.1-0.5,1.5c-0.3,0.5-0.8,0.8-1.5,1l2.1,3.5H235.1z M232.4,91.5h1.5c0.5,0,0.8-0.1,1.1-0.3
				c0.2-0.2,0.3-0.5,0.3-1c0-0.4-0.1-0.7-0.3-0.9c-0.2-0.2-0.6-0.3-1.1-0.3h-1.5V91.5z"/>
			<path class="st3" d="M248.2,87.5l-2.9,5.7v3h-1.7v-3l-2.9-5.7h2l1.9,4l1.9-4H248.2z"/>
			<path class="st3" d="M257.4,88.1c0.7,0.4,1.2,0.9,1.6,1.5c0.4,0.7,0.6,1.4,0.6,2.3c0,0.9-0.2,1.6-0.6,2.3
				c-0.4,0.7-0.9,1.2-1.6,1.5c-0.7,0.4-1.5,0.5-2.4,0.5h-3v-8.7h3C255.9,87.5,256.7,87.7,257.4,88.1z M257.1,94
				c0.5-0.5,0.7-1.2,0.7-2.1c0-0.9-0.2-1.6-0.7-2.1c-0.5-0.5-1.2-0.8-2.1-0.8h-1.2v5.7h1.2C255.9,94.7,256.6,94.5,257.1,94z"/>
			<path class="st3" d="M268.9,94.6h-3.5l-0.6,1.6h-1.8l3.1-8.7h2l3.1,8.7h-1.8L268.9,94.6z M268.5,93.2l-1.3-3.6l-1.3,3.6H268.5z"
				/>
			<path class="st3" d="M282.1,87.5l-2.9,5.7v3h-1.7v-3l-2.9-5.7h2l1.9,4l1.8-4H282.1z"/>
			<path class="st3" d="M293.3,94.8h2.9v1.4h-4.6v-8.7h1.7V94.8z"/>
			<path class="st3" d="M301.7,87.5v8.7H300v-8.7H301.7z"/>
			<path class="st3" d="M311.5,87.5v1.4h-3.6v2.2h2.8v1.4h-2.8v3.7h-1.7v-8.7H311.5z"/>
			<path class="st3" d="M317.2,88.9v2.2h2.9v1.4h-2.9v2.3h3.3v1.4h-5v-8.7h5v1.4H317.2z"/>
			<path class="st3" d="M326.2,96c-0.5-0.2-0.9-0.5-1.1-0.9c-0.3-0.4-0.4-0.8-0.4-1.4h1.9c0,0.4,0.2,0.6,0.4,0.8
				c0.2,0.2,0.5,0.3,0.9,0.3c0.4,0,0.7-0.1,1-0.3c0.2-0.2,0.3-0.4,0.3-0.8c0-0.3-0.1-0.5-0.2-0.6c-0.2-0.2-0.4-0.3-0.6-0.4
				c-0.2-0.1-0.6-0.2-1-0.3c-0.6-0.2-1-0.3-1.4-0.5c-0.4-0.2-0.7-0.4-0.9-0.7c-0.2-0.3-0.4-0.8-0.4-1.3c0-0.5,0.1-1,0.4-1.3
				c0.3-0.4,0.6-0.7,1.1-0.9c0.5-0.2,1-0.3,1.6-0.3c0.9,0,1.6,0.2,2.2,0.6c0.6,0.4,0.9,1,0.9,1.8h-1.9c0-0.3-0.1-0.5-0.4-0.7
				c-0.2-0.2-0.5-0.3-0.9-0.3c-0.3,0-0.6,0.1-0.8,0.3c-0.2,0.2-0.3,0.4-0.3,0.8c0,0.2,0.1,0.4,0.2,0.6c0.2,0.2,0.3,0.3,0.6,0.4
				c0.2,0.1,0.6,0.2,1,0.3c0.6,0.2,1,0.3,1.4,0.5c0.4,0.2,0.7,0.4,0.9,0.7c0.3,0.3,0.4,0.8,0.4,1.3c0,0.5-0.1,0.9-0.4,1.3
				c-0.2,0.4-0.6,0.7-1.1,0.9c-0.5,0.2-1,0.4-1.6,0.4C327.2,96.3,326.7,96.2,326.2,96z"/>
			<path class="st3" d="M341,87.5v1.4h-2.3v7.3H337v-7.3h-2.3v-1.4H341z"/>
			<path class="st3" d="M351.9,87.5l-2.9,5.7v3h-1.7v-3l-2.9-5.7h2l1.9,4l1.8-4H351.9z"/>
			<path class="st3" d="M357.4,94.8h2.9v1.4h-4.6v-8.7h1.7V94.8z"/>
			<path class="st3" d="M365.8,88.9v2.2h2.9v1.4h-2.9v2.3h3.3v1.4h-5v-8.7h5v1.4H365.8z"/>
			<path class="st3" d="M385.1,91.5c-0.2,0.4-0.6,0.7-1,1c-0.5,0.2-1.1,0.4-1.8,0.4h-1.4v3.3h-1.7v-8.7h3.2c0.7,0,1.2,0.1,1.7,0.3
				c0.5,0.2,0.8,0.6,1.1,1c0.2,0.4,0.4,0.9,0.4,1.4C385.4,90.7,385.3,91.1,385.1,91.5z M383.3,91.1c0.2-0.2,0.3-0.5,0.3-0.9
				c0-0.8-0.5-1.3-1.4-1.3h-1.4v2.5h1.4C382.7,91.5,383.1,91.4,383.3,91.1z"/>
			<path class="st3" d="M394.7,94.6h-3.5l-0.6,1.6h-1.8l3.1-8.7h2l3.1,8.7h-1.8L394.7,94.6z M394.2,93.2l-1.3-3.6l-1.3,3.6H394.2z"
				/>
			<path class="st3" d="M405.5,96.2l-1.9-3.4h-0.8v3.4H401v-8.7h3.3c0.7,0,1.2,0.1,1.7,0.4c0.5,0.2,0.8,0.6,1.1,1
				c0.2,0.4,0.4,0.9,0.4,1.3c0,0.6-0.2,1.1-0.5,1.5c-0.3,0.5-0.8,0.8-1.5,1l2.1,3.5H405.5z M402.8,91.5h1.4c0.5,0,0.8-0.1,1.1-0.3
				c0.2-0.2,0.3-0.5,0.3-1c0-0.4-0.1-0.7-0.3-0.9c-0.2-0.2-0.6-0.3-1.1-0.3h-1.4V91.5z"/>
			<path class="st3" d="M417.6,87.5v1.4h-2.3v7.3h-1.7v-7.3h-2.3v-1.4H417.6z"/>
			<path class="st3" d="M429,96.2h-1.7l-3.9-6v6h-1.7v-8.7h1.7l3.9,6v-6h1.7V96.2z"/>
			<path class="st3" d="M435.2,88.9v2.2h2.9v1.4h-2.9v2.3h3.3v1.4h-5v-8.7h5v1.4H435.2z"/>
			<path class="st3" d="M447.3,96.2l-1.9-3.4h-0.8v3.4h-1.7v-8.7h3.3c0.7,0,1.2,0.1,1.7,0.4c0.5,0.2,0.8,0.6,1.1,1
				c0.2,0.4,0.4,0.9,0.4,1.3c0,0.6-0.2,1.1-0.5,1.5c-0.3,0.5-0.8,0.8-1.5,1l2.1,3.5H447.3z M444.6,91.5h1.4c0.5,0,0.8-0.1,1.1-0.3
				c0.2-0.2,0.3-0.5,0.3-1c0-0.4-0.1-0.7-0.3-0.9c-0.2-0.2-0.6-0.3-1.1-0.3h-1.4V91.5z"/>
		</g>
	</g>
</g>
</svg>
